<?xml version="1.0" encoding="UTF-8" standalone="no"?>
<svg
   xmlns:dc="http://purl.org/dc/elements/1.1/"
   xmlns:cc="http://creativecommons.org/ns#"
   xmlns:rdf="http://www.w3.org/1999/02/22-rdf-syntax-ns#"
   xmlns:svg="http://www.w3.org/2000/svg"
   xmlns="http://www.w3.org/2000/svg"
   xmlns:sodipodi="http://sodipodi.sourceforge.net/DTD/sodipodi-0.dtd"
   xmlns:inkscape="http://www.inkscape.org/namespaces/inkscape"
   width="140mm"
   height="90mm"
   viewBox="0 0 140 90"
   version="1.1"
   id="svg8"
   inkscape:version="1.0.1 (3bc2e813f5, 2020-09-07)"
   sodipodi:docname="faceplate-screen.svg">
  <defs
     id="defs2" />
  <sodipodi:namedview
     id="base"
     pagecolor="#ffffff"
     bordercolor="#666666"
     borderopacity="1.0"
     inkscape:pageopacity="0.0"
     inkscape:pageshadow="2"
     inkscape:zoom="2.8284271"
     inkscape:cx="308.53628"
     inkscape:cy="58.405719"
     inkscape:document-units="mm"
     inkscape:current-layer="layer1"
     inkscape:document-rotation="0"
     showgrid="false"
     inkscape:object-paths="true"
     inkscape:snap-intersection-paths="true"
     inkscape:snap-smooth-nodes="true"
     showguides="true"
     inkscape:window-width="1920"
     inkscape:window-height="1043"
     inkscape:window-x="1920"
     inkscape:window-y="0"
     inkscape:window-maximized="1" />
  <metadata
     id="metadata5">
    <rdf:RDF>
      <cc:Work
         rdf:about="">
        <dc:format>image/svg+xml</dc:format>
        <dc:type
           rdf:resource="http://purl.org/dc/dcmitype/StillImage" />
        <dc:title></dc:title>
      </cc:Work>
    </rdf:RDF>
  </metadata>
  <g
     inkscape:label="Layer 1"
     inkscape:groupmode="layer"
     id="layer1">
    <path
       d="m 8.6075486,44.5 c -1.010268,0 -1.482589,-1.204688 -1.939732,-2.369531 -0.352232,-0.898326 -0.751339,-1.916183 -1.274553,-1.916183 -0.443081,0 -1.019866,0.913951 -1.273661,1.662947 a 0.17857143,0.17857143 0 0 1 -0.220313,0.115289 l -0.342857,-0.10279 a 0.17857143,0.17857143 0 0 1 -0.11808,-0.228125 C 3.6471696,41.037835 4.3459416,39.5 5.3932636,39.5 c 1.010268,0 1.482589,1.204688 1.939732,2.369532 0.352232,0.898326 0.751339,1.916183 1.274553,1.916183 0.443081,0 1.019867,-0.913951 1.273662,-1.662947 a 0.17857143,0.17857143 0 0 1 0.2203124,-0.11529 l 0.342857,0.10279 a 0.17857143,0.17857143 0 0 1 0.118079,0.228013 C 10.353643,42.962165 9.6548706,44.5 8.6075486,44.5 Z"
       id="path1094"
       style="stroke-width:0.0111608" />
    <path
       d="m 16.107543,31.45 h -0.0038 a 0.35714287,0.35714287 0 0 1 -0.281807,-0.142857 l -2.935267,-3.913504 -1.358035,1.8452 a 0.17857144,0.17857144 0 0 1 -0.25067,0.03013 l -0.280697,-0.220532 a 0.17857144,0.17857144 0 0 1 -0.03009,-0.25078 l 1.645318,-2.211162 A 0.35714287,0.35714287 0 0 1 12.893297,26.45 h 0.0038 a 0.35714287,0.35714287 0 0 1 0.281808,0.142857 l 2.935268,3.913505 1.358035,-1.845201 a 0.17857144,0.17857144 0 0 1 0.25067,-0.03013 l 0.280692,0.220536 a 0.17857144,0.17857144 0 0 1 0.03013,0.250781 l -1.645313,2.211161 a 0.35714287,0.35714287 0 0 1 -0.280802,0.136495 z"
       id="path1105"
       style="stroke-width:0.0111607" />
    <path
       d="m 38.7415,44.5 h -1.696429 a 0.40178572,0.40178572 0 0 1 -0.401785,-0.401786 v -3.883928 h -1.071429 v 1.741071 a 0.40178572,0.40178572 0 0 1 -0.401786,0.401786 h -1.5625 A 0.17857143,0.17857143 0 0 1 33.429,42.178571 v -0.357142 a 0.17857143,0.17857143 0 0 1 0.178571,-0.178572 h 1.25 V 39.901786 A 0.40178572,0.40178572 0 0 1 35.259357,39.5 h 1.696429 a 0.40178572,0.40178572 0 0 1 0.401785,0.401786 v 3.883928 H 38.429 v -1.741071 a 0.40178572,0.40178572 0 0 1 0.401786,-0.401786 h 1.5625 a 0.17857143,0.17857143 0 0 1 0.178571,0.178572 v 0.357142 a 0.17857143,0.17857143 0 0 1 -0.178571,0.178572 h -1.25 v 1.741071 A 0.40178572,0.40178572 0 0 1 38.7415,44.5 Z"
       id="path1116"
       style="stroke-width:0.0111607" />
    <g
       id="g1398"
       transform="translate(0,-2.9208326)">
      <path
         d="m 34.00004,21.16865 -1.015293,-1.09378 c -0.09263,-0.0997 -0.250742,-0.0999 -0.343496,0 l -1.01538,1.09378 c -0.138731,0.14942 -0.03297,0.39386 0.171748,0.39386 h 0.624755 v 2.65625 h -0.820078 a 0.11714841,0.11714841 0 0 0 -0.08286,0.0343 l -0.546875,0.54687 c -0.07383,0.0738 -0.02154,0.20005 0.08286,0.20005 h 1.913828 c 0.129443,0 0.234375,-0.10493 0.234375,-0.23438 v -3.20312 h 0.624668 c 0.203886,0 0.311045,-0.24384 0.171748,-0.39386 z"
         id="path1171"
         style="stroke-width:0.00976561" />
      <path
         d="m 25.999958,23.831357 1.01529,1.09378 c 0.0926,0.09975 0.25074,0.09989 0.3435,0 l 1.01538,-1.09378 c 0.13873,-0.149413 0.033,-0.393857 -0.17175,-0.393857 h -0.62476 v -2.656249 h 0.82008 a 0.11714841,0.11714841 0 0 0 0.0829,-0.03433 l 0.54688,-0.546875 c 0.0738,-0.07382 0.0215,-0.200049 -0.0829,-0.200049 h -1.91383 c -0.12944,0 -0.23438,0.104932 -0.23438,0.234375 v 3.203124 h -0.62466 c -0.20389,0 -0.31105,0.243838 -0.17175,0.393857 z"
         id="path1182"
         style="stroke-width:0.00976561" />
    </g>
    <path
       id="path1105-7"
       style="stroke-width:0.0111607"
       d="m 33.189951,79.500425 a 0.35714286,0.35714286 0 0 0 -0.01292,5.18e-4 0.35714286,0.35714286 0 0 0 -0.01292,5.16e-4 0.35714286,0.35714286 0 0 0 -0.01705,0.0016 0.35714286,0.35714286 0 0 0 -0.02119,0.0036 0.35714286,0.35714286 0 0 0 -0.0217,0.0041 0.35714286,0.35714286 0 0 0 -0.0098,0.0031 0.35714286,0.35714286 0 0 0 -0.0062,0.0016 0.35714286,0.35714286 0 0 0 -0.0124,0.0041 0.35714286,0.35714286 0 0 0 -0.01705,0.0062 0.35714286,0.35714286 0 0 0 -0.01654,0.0072 0.35714286,0.35714286 0 0 0 -0.01395,0.0067 0.35714286,0.35714286 0 0 0 -0.02015,0.01085 0.35714286,0.35714286 0 0 0 -0.0067,0.0041 0.35714286,0.35714286 0 0 0 -0.01085,0.0067 0.35714286,0.35714286 0 0 0 -0.01395,0.01033 0.35714286,0.35714286 0 0 0 -0.0057,0.0041 0.35714286,0.35714286 0 0 0 -0.01705,0.01447 0.35714286,0.35714286 0 0 0 -0.01912,0.01809 0.35714286,0.35714286 0 0 0 -0.01705,0.01912 0.35714286,0.35714286 0 0 0 -0.0083,0.0098 l -0.944644,1.269174 -0.700734,0.941544 a 0.17857144,0.17857144 0 0 0 0.02997,0.251147 l 0.280604,0.220142 a 0.17857144,0.17857144 0 0 0 0.250632,-0.02997 l 0.139526,-0.189654 0.892968,-1.213363 3.260783,3.471624 a 0.35714286,0.35714286 0 0 0 0.01085,0.01344 0.35714286,0.35714286 0 0 0 0.01499,0.01705 0.35714286,0.35714286 0 0 0 0.0052,0.0052 0.35714286,0.35714286 0 0 0 0.0093,0.0088 0.35714286,0.35714286 0 0 0 0.0078,0.0077 0.35714286,0.35714286 0 0 0 0.01447,0.01189 0.35714286,0.35714286 0 0 0 0.0057,0.0046 0.35714286,0.35714286 0 0 0 0.0047,0.0036 0.35714286,0.35714286 0 0 0 0.01447,0.0098 0.35714286,0.35714286 0 0 0 0.0155,0.0098 0.35714286,0.35714286 0 0 0 0.01137,0.0067 0.35714286,0.35714286 0 0 0 0.01034,0.0052 0.35714286,0.35714286 0 0 0 0.01085,0.0057 0.35714286,0.35714286 0 0 0 0.01602,0.0067 0.35714286,0.35714286 0 0 0 0.0062,0.0026 0.35714286,0.35714286 0 0 0 0.02274,0.0077 0.35714286,0.35714286 0 0 0 0.02481,0.0067 0.35714286,0.35714286 0 0 0 0.01705,0.0036 0.35714286,0.35714286 0 0 0 0.01705,0.0026 0.35714286,0.35714286 0 0 0 0.02325,0.0021 0.35714286,0.35714286 0 0 0 0.0026,5.19e-4 0.35714286,0.35714286 0 0 0 0.01705,5.16e-4 h 0.0036 a 0.35714286,0.35714286 0 0 0 0.02584,-0.001 0.35714286,0.35714286 0 0 0 0.02584,-0.0026 0.35714286,0.35714286 0 0 0 0.03772,-0.0078 0.35714286,0.35714286 0 0 0 0.0124,-0.0036 0.35714286,0.35714286 0 0 0 0.02274,-0.0078 0.35714286,0.35714286 0 0 0 0.0021,-5.15e-4 0.35714286,0.35714286 0 0 0 0.01188,-0.0047 0.35714286,0.35714286 0 0 0 0.01602,-0.0072 0.35714286,0.35714286 0 0 0 0.0186,-0.0098 0.35714286,0.35714286 0 0 0 0.02222,-0.01344 0.35714286,0.35714286 0 0 0 0.01085,-0.0072 0.35714286,0.35714286 0 0 0 0.01034,-0.0078 0.35714286,0.35714286 0 0 0 0.01033,-0.0078 0.35714286,0.35714286 0 0 0 0.0098,-0.0083 0.35714286,0.35714286 0 0 0 0.0093,-0.0088 0.35714286,0.35714286 0 0 0 0.0093,-0.0093 0.35714286,0.35714286 0 0 0 0.0088,-0.0093 0.35714286,0.35714286 0 0 0 0.0083,-0.0098 0.35714286,0.35714286 0 0 0 0.0088,-0.0098 l 1.644859,-2.211236 a 0.17857144,0.17857144 0 0 0 0.01034,-0.01499 0.17857144,0.17857144 0 0 0 0.0072,-0.01189 l 0.573609,-0.77928 3.599781,3.011185 a 0.35714286,0.35714286 0 0 0 0.282151,0.142627 h 0.0036 a 0.35714286,0.35714286 0 0 0 0.28112,-0.136425 l 1.645377,-2.211236 a 0.17857143,0.17857143 0 0 0 0.01499,-0.02274 l 4.175972,2.22777 a 0.35714286,0.35714286 0 0 0 0.281635,0.142627 h 0.0041 a 0.35714286,0.35714286 0 0 0 0.280601,-0.136425 l 1.64538,-2.211236 a 0.17857143,0.17857143 0 0 0 -0.02997,-0.25063 L 50.8257,81.681285 a 0.17857143,0.17857143 0 0 0 -0.250632,0.02997 l -1.358056,1.845363 -2.935738,-3.913455 a 0.35714286,0.35714286 0 0 0 -0.281638,-0.143144 h -0.0036 a 0.35714286,0.35714286 0 0 0 -0.28112,0.136943 l -1.543057,2.074293 -0.101804,0.136425 a 0.17857143,0.17857143 0 0 0 -0.01395,0.02067 0.17857143,0.17857143 0 0 0 -5.16e-4,5.18e-4 l -1.241784,1.687751 -2.935222,-3.913455 A 0.35714286,0.35714286 0 0 0 39.596945,79.50002 h -0.0041 a 0.35714286,0.35714286 0 0 0 -0.280604,0.136943 l -1.645377,2.210718 a 0.17857143,0.17857143 0 0 0 -0.01499,0.02325 0.17857143,0.17857143 0 0 0 -5.16e-4,5.16e-4 l -1.240235,1.685168 -2.935221,-3.913455 a 0.35714286,0.35714286 0 0 0 -0.01085,-0.01344 0.35714286,0.35714286 0 0 0 -0.01499,-0.01705 0.35714286,0.35714286 0 0 0 -0.0021,-0.0021 0.35714286,0.35714286 0 0 0 -0.0062,-0.0062 0.35714286,0.35714286 0 0 0 -0.0124,-0.01189 0.35714286,0.35714286 0 0 0 -0.0062,-0.0057 0.35714286,0.35714286 0 0 0 -0.01344,-0.01085 0.35714286,0.35714286 0 0 0 -0.02119,-0.0155 0.35714286,0.35714286 0 0 0 -0.01654,-0.01033 0.35714286,0.35714286 0 0 0 -0.0052,-0.0031 0.35714286,0.35714286 0 0 0 -0.0078,-0.0041 0.35714286,0.35714286 0 0 0 -0.01499,-0.0077 0.35714286,0.35714286 0 0 0 -0.0078,-0.0036 0.35714286,0.35714286 0 0 0 -0.01602,-0.0067 0.35714286,0.35714286 0 0 0 -0.0083,-0.0031 0.35714286,0.35714286 0 0 0 -0.01602,-0.0057 0.35714286,0.35714286 0 0 0 -0.0031,-10e-4 0.35714286,0.35714286 0 0 0 -0.02222,-0.0057 0.35714286,0.35714286 0 0 0 -0.02532,-0.0047 0.35714286,0.35714286 0 0 0 -0.02532,-0.0031 0.35714286,0.35714286 0 0 0 -0.02532,-0.0016 0.35714286,0.35714286 0 0 0 -5.16e-4,0 z" />
    <path
       style="color:#000000;font-style:normal;font-variant:normal;font-weight:normal;font-stretch:normal;font-size:medium;line-height:normal;font-family:sans-serif;font-variant-ligatures:normal;font-variant-position:normal;font-variant-caps:normal;font-variant-numeric:normal;font-variant-alternates:normal;font-variant-east-asian:normal;font-feature-settings:normal;font-variation-settings:normal;text-indent:0;text-align:start;text-decoration:none;text-decoration-line:none;text-decoration-style:solid;text-decoration-color:#000000;letter-spacing:normal;word-spacing:normal;text-transform:none;writing-mode:lr-tb;direction:ltr;text-orientation:mixed;dominant-baseline:auto;baseline-shift:baseline;text-anchor:start;white-space:normal;shape-padding:0;shape-margin:0;inline-size:0;clip-rule:nonzero;display:inline;overflow:visible;visibility:visible;isolation:auto;mix-blend-mode:normal;color-interpolation:sRGB;color-interpolation-filters:linearRGB;solid-color:#000000;solid-opacity:1;vector-effect:none;fill:#000000;fill-opacity:1;fill-rule:nonzero;stroke:none;stroke-width:0.75;stroke-linecap:round;stroke-linejoin:miter;stroke-miterlimit:4;stroke-dasharray:none;stroke-dashoffset:0;stroke-opacity:1;color-rendering:auto;image-rendering:auto;shape-rendering:auto;text-rendering:auto;enable-background:accumulate;stop-color:#000000;stop-opacity:1;opacity:1"
       d="M 56.726562 54.5 A 0.375 0.375 0 0 0 56.351562 54.875 A 0.375 0.375 0 0 0 56.726562 55.25 L 59.091797 55.25 C 60.513928 55.25 61.667967 56.216503 62.480469 57.234375 C 63.29297 58.252247 63.726563 59.271484 63.726562 59.271484 A 0.375 0.375 0 0 0 64.21875 59.470703 A 0.375 0.375 0 0 0 64.417969 58.978516 C 64.417969 58.978516 63.950154 57.872753 63.066406 56.765625 C 62.182658 55.658497 60.848201 54.5 59.091797 54.5 L 56.726562 54.5 z "
       id="path1692" />
    <path
       style="color:#000000;font-style:normal;font-variant:normal;font-weight:normal;font-stretch:normal;font-size:medium;line-height:normal;font-family:sans-serif;font-variant-ligatures:normal;font-variant-position:normal;font-variant-caps:normal;font-variant-numeric:normal;font-variant-alternates:normal;font-variant-east-asian:normal;font-feature-settings:normal;font-variation-settings:normal;text-indent:0;text-align:start;text-decoration:none;text-decoration-line:none;text-decoration-style:solid;text-decoration-color:#000000;letter-spacing:normal;word-spacing:normal;text-transform:none;writing-mode:lr-tb;direction:ltr;text-orientation:mixed;dominant-baseline:auto;baseline-shift:baseline;text-anchor:start;white-space:normal;shape-padding:0;shape-margin:0;inline-size:0;clip-rule:nonzero;display:inline;overflow:visible;visibility:visible;isolation:auto;mix-blend-mode:normal;color-interpolation:sRGB;color-interpolation-filters:linearRGB;solid-color:#000000;solid-opacity:1;vector-effect:none;fill:#000000;fill-opacity:1;fill-rule:nonzero;stroke:none;stroke-width:0.750001;stroke-linecap:round;stroke-linejoin:miter;stroke-miterlimit:4;stroke-dasharray:none;stroke-dashoffset:0;stroke-opacity:1;color-rendering:auto;image-rendering:auto;shape-rendering:auto;text-rendering:auto;enable-background:accumulate;stop-color:#000000;stop-opacity:1;opacity:1"
       d="M 79.898438 79.5 C 79.605006 79.5 79.352675 79.62682 79.164062 79.779297 C 78.97545 79.931774 78.834127 80.110705 78.708984 80.273438 C 78.583842 80.43617 78.47328 80.584008 78.388672 80.669922 C 78.304063 80.755835 78.272796 80.753906 78.291016 80.753906 L 75.927734 80.753906 A 0.37500051 0.37500051 0 0 0 75.552734 81.128906 A 0.37500051 0.37500051 0 0 0 75.927734 81.503906 L 78.291016 81.503906 C 78.571647 81.503906 78.776744 81.346618 78.923828 81.197266 C 79.070912 81.047913 79.186648 80.881424 79.302734 80.730469 C 79.418821 80.579513 79.53431 80.44607 79.636719 80.363281 C 79.739128 80.280493 79.8108 80.25 79.898438 80.25 C 80.012884 80.25 80.346259 80.427481 80.695312 80.796875 C 81.044366 81.166269 81.417808 81.683156 81.751953 82.203125 C 82.420243 83.243063 82.935547 84.291016 82.935547 84.291016 A 0.37500051 0.37500051 0 0 0 83.4375 84.460938 A 0.37500051 0.37500051 0 0 0 83.609375 83.958984 C 83.609375 83.958984 83.08002 82.881812 82.382812 81.796875 C 82.034209 81.254407 81.644133 80.708684 81.240234 80.28125 C 80.836336 79.853816 80.426365 79.5 79.898438 79.5 z "
       id="path1688" />
    <path
       style="color:#000000;font-style:normal;font-variant:normal;font-weight:normal;font-stretch:normal;font-size:medium;line-height:normal;font-family:sans-serif;font-variant-ligatures:normal;font-variant-position:normal;font-variant-caps:normal;font-variant-numeric:normal;font-variant-alternates:normal;font-variant-east-asian:normal;font-feature-settings:normal;font-variation-settings:normal;text-indent:0;text-align:start;text-decoration:none;text-decoration-line:none;text-decoration-style:solid;text-decoration-color:#000000;letter-spacing:normal;word-spacing:normal;text-transform:none;writing-mode:lr-tb;direction:ltr;text-orientation:mixed;dominant-baseline:auto;baseline-shift:baseline;text-anchor:start;white-space:normal;shape-padding:0;shape-margin:0;inline-size:0;clip-rule:nonzero;display:inline;overflow:visible;visibility:visible;isolation:auto;mix-blend-mode:normal;color-interpolation:sRGB;color-interpolation-filters:linearRGB;solid-color:#000000;solid-opacity:1;vector-effect:none;fill:#000000;fill-opacity:1;fill-rule:nonzero;stroke:none;stroke-width:0.910702;stroke-linecap:round;stroke-linejoin:miter;stroke-miterlimit:4;stroke-dasharray:none;stroke-dashoffset:0;stroke-opacity:1;color-rendering:auto;image-rendering:auto;shape-rendering:auto;text-rendering:auto;enable-background:accumulate;stop-color:#000000;stop-opacity:1;opacity:1"
       d="M 102.10352 54.5 A 0.455351 0.455351 0 0 0 101.85547 54.568359 L 95.265625 58.658203 A 0.455351 0.455351 0 0 0 95.119141 59.285156 A 0.455351 0.455351 0 0 0 95.746094 59.431641 L 102.33398 55.341797 A 0.455351 0.455351 0 0 0 102.48242 54.714844 A 0.455351 0.455351 0 0 0 102.10352 54.5 z "
       id="path1696" />
    <path
       style="color:#000000;font-style:normal;font-variant:normal;font-weight:normal;font-stretch:normal;font-size:medium;line-height:normal;font-family:sans-serif;font-variant-ligatures:normal;font-variant-position:normal;font-variant-caps:normal;font-variant-numeric:normal;font-variant-alternates:normal;font-variant-east-asian:normal;font-feature-settings:normal;font-variation-settings:normal;text-indent:0;text-align:start;text-decoration:none;text-decoration-line:none;text-decoration-style:solid;text-decoration-color:#000000;letter-spacing:normal;word-spacing:normal;text-transform:none;writing-mode:lr-tb;direction:ltr;text-orientation:mixed;dominant-baseline:auto;baseline-shift:baseline;text-anchor:start;white-space:normal;shape-padding:0;shape-margin:0;inline-size:0;clip-rule:nonzero;display:inline;overflow:visible;visibility:visible;isolation:auto;mix-blend-mode:normal;color-interpolation:sRGB;color-interpolation-filters:linearRGB;solid-color:#000000;solid-opacity:1;vector-effect:none;fill:#000000;fill-opacity:1;fill-rule:nonzero;stroke:none;stroke-width:0.910701;stroke-linecap:round;stroke-linejoin:miter;stroke-miterlimit:4;stroke-dasharray:none;stroke-dashoffset:0;stroke-opacity:1;color-rendering:auto;image-rendering:auto;shape-rendering:auto;text-rendering:auto;enable-background:accumulate;stop-color:#000000;stop-opacity:1;opacity:1"
       d="M 114.73047 79.5 A 0.45535049 0.45535049 0 0 0 114.31836 79.714844 A 0.45535049 0.45535049 0 0 0 114.46484 80.341797 L 121.05469 84.431641 A 0.45535049 0.45535049 0 0 0 121.68164 84.285156 A 0.45535049 0.45535049 0 0 0 121.53516 83.658203 L 114.94531 79.568359 A 0.45535049 0.45535049 0 0 0 114.73047 79.5 z "
       id="path1700" />
    <path
       d="m 103.17489,14.091744 -1.15847,1.158214 h -1.32892 c -0.17266,0 -0.3125,0.139845 -0.3125,0.312503 v 1.875018 c 0,0.172528 0.13984,0.312503 0.3125,0.312503 h 1.32892 l 1.15847,1.158214 c 0.19571,0.195705 0.53347,0.0582 0.53347,-0.220965 V 14.31271 c 0,-0.27943 -0.33802,-0.416411 -0.53347,-0.220966 z m 3.45017,2.408226 c 0,-0.827221 -0.41746,-1.587775 -1.11681,-2.034394 -0.14571,-0.09297 -0.33894,-0.04974 -0.43126,0.09714 -0.0923,0.146876 -0.0492,0.341279 0.0965,0.434379 0.51759,0.330602 0.82657,0.892326 0.82657,1.502879 0,0.610552 -0.30898,1.172277 -0.82657,1.502879 -0.1457,0.09297 -0.1888,0.287373 -0.0965,0.434379 0.0848,0.134897 0.27501,0.197137 0.43126,0.09714 0.69935,-0.446619 1.11681,-1.207173 1.11681,-2.034394 z m -1.84599,-1.000921 c -0.15078,-0.08242 -0.34101,-0.02812 -0.42461,0.123048 -0.0832,0.151173 -0.0281,0.341149 0.12305,0.424614 0.1681,0.09232 0.27253,0.266148 0.27253,0.453259 0,0.187242 -0.10443,0.360941 -0.2724,0.45326 -0.15117,0.08346 -0.20625,0.27344 -0.12305,0.424613 0.0837,0.151824 0.27409,0.205731 0.42461,0.123048 0.36759,-0.202476 0.59597,-0.585943 0.59597,-1.001051 0,-0.415108 -0.22838,-0.798445 -0.5961,-1.000791 z"
       id="path1339"
       style="stroke-width:0.0130209" />
    <circle
       style="fill:#000000;fill-opacity:1;stroke:none;stroke-width:0.329;stroke-linecap:round;stroke-miterlimit:4;stroke-dasharray:none;stroke-opacity:1;paint-order:stroke fill markers"
       id="path1350"
       cx="8.9499998"
       cy="49.5"
       r="1" />
    <circle
       style="fill:#000000;fill-opacity:1;stroke:none;stroke-width:0.328999;stroke-linecap:round;stroke-miterlimit:4;stroke-dasharray:none;stroke-opacity:1;paint-order:stroke fill markers"
       id="path1350-2"
       cx="8.9499998"
       cy="34.5"
       r="1" />
    <circle
       style="fill:#000000;fill-opacity:1;stroke:none;stroke-width:0.328999;stroke-linecap:round;stroke-miterlimit:4;stroke-dasharray:none;stroke-opacity:1;paint-order:stroke fill markers"
       id="path1350-8"
       cx="22"
       cy="27"
       r="1" />
    <circle
       style="fill:#000000;fill-opacity:1;stroke:none;stroke-width:0.328999;stroke-linecap:round;stroke-miterlimit:4;stroke-dasharray:none;stroke-opacity:1;paint-order:stroke fill markers"
       id="path1350-9"
       cx="35.049999"
       cy="34.5"
       r="1" />
    <circle
       style="fill:#000000;fill-opacity:1;stroke:none;stroke-width:0.328999;stroke-linecap:round;stroke-miterlimit:4;stroke-dasharray:none;stroke-opacity:1;paint-order:stroke fill markers"
       id="path1350-9-7"
       cx="35.049999"
       cy="49.5"
       r="1" />
    <path
       style="color:#000000;font-style:normal;font-variant:normal;font-weight:normal;font-stretch:normal;font-size:medium;line-height:normal;font-family:sans-serif;font-variant-ligatures:normal;font-variant-position:normal;font-variant-caps:normal;font-variant-numeric:normal;font-variant-alternates:normal;font-variant-east-asian:normal;font-feature-settings:normal;font-variation-settings:normal;text-indent:0;text-align:start;text-decoration:none;text-decoration-line:none;text-decoration-style:solid;text-decoration-color:#000000;letter-spacing:normal;word-spacing:normal;text-transform:none;writing-mode:lr-tb;direction:ltr;text-orientation:mixed;dominant-baseline:auto;baseline-shift:baseline;text-anchor:start;white-space:normal;shape-padding:0;shape-margin:0;inline-size:0;clip-rule:nonzero;display:inline;overflow:visible;visibility:visible;isolation:auto;mix-blend-mode:normal;color-interpolation:sRGB;color-interpolation-filters:linearRGB;solid-color:#000000;solid-opacity:1;vector-effect:none;fill:#000000;fill-opacity:1;fill-rule:nonzero;stroke:none;stroke-width:0.75;stroke-linecap:round;stroke-linejoin:round;stroke-miterlimit:4;stroke-dasharray:none;stroke-dashoffset:0;stroke-opacity:1;color-rendering:auto;image-rendering:auto;shape-rendering:auto;text-rendering:auto;enable-background:accumulate;stop-color:#000000;stop-opacity:1;opacity:1"
       d="M 29.470703 26.451172 A 0.3750375 0.3750375 0 0 0 29.291016 26.511719 L 26.095703 28.636719 A 0.375 0.375 0 0 0 25.990234 29.158203 A 0.375 0.375 0 0 0 26.509766 29.261719 L 29.125 27.523438 L 29.125 31.074219 A 0.3750375 0.3750375 0 0 0 29.707031 31.386719 L 32.904297 29.261719 A 0.375 0.375 0 0 0 33.007812 28.742188 A 0.375 0.375 0 0 0 32.488281 28.636719 L 29.875 30.373047 L 29.875 26.824219 A 0.3750375 0.3750375 0 0 0 29.470703 26.451172 z "
       id="path1684" />
    <g
       aria-label="OSCIL
LATOR"
       id="text1408"
       style="font-style:normal;font-weight:normal;font-size:6.35px;line-height:0.9;font-family:sans-serif;letter-spacing:0px;word-spacing:0px;fill:#000000;fill-opacity:1;stroke:none;stroke-width:0.264583">
      <path
         d="m 13.428951,64.436781 q 0,0.954981 -0.446484,1.435572 -0.446484,0.48059 -1.175122,0.48059 -0.725537,0 -1.178223,-0.48059 -0.452685,-0.480591 -0.452685,-1.435572 V 63.68644 q 0,-0.976685 0.449585,-1.472779 0.449585,-0.499194 1.175122,-0.499194 0.728637,0 1.178222,0.499194 0.449585,0.496094 0.449585,1.472779 z m -0.911572,-0.756543 q 0,-0.644921 -0.182934,-0.923974 -0.182935,-0.279053 -0.533301,-0.279053 -0.347266,0 -0.5302,0.275952 -0.179834,0.272852 -0.182935,0.902271 v 0.781347 q 0,0.613916 0.182935,0.886768 0.186035,0.269751 0.536401,0.269751 0.347266,0 0.5271,-0.266651 0.179833,-0.26665 0.182934,-0.868164 z"
         style="font-style:normal;font-variant:normal;font-weight:bold;font-stretch:normal;font-size:6.35px;font-family:'Roboto Condensed';-inkscape-font-specification:'Roboto Condensed, Bold';text-align:center;text-anchor:middle;stroke-width:0.264583"
         id="path1745" />
      <path
         d="m 15.993136,65.103407 q 0,-0.232544 -0.114722,-0.381372 -0.111621,-0.151928 -0.592212,-0.347265 -0.48059,-0.195337 -0.840258,-0.496094 -0.381372,-0.31936 -0.381372,-0.902271 0,-0.570507 0.399975,-0.914672 0.399976,-0.347266 1.029395,-0.347266 0.648022,0 1.032495,0.390674 0.387573,0.390674 0.387573,1.001489 h -0.911572 q 0,-0.282153 -0.124024,-0.465088 -0.120923,-0.182934 -0.399975,-0.182934 -0.257349,0 -0.381372,0.151928 -0.120923,0.151929 -0.120923,0.36897 0,0.220142 0.182934,0.36897 0.186036,0.148828 0.489893,0.282153 0.632519,0.226343 0.945679,0.567407 0.313159,0.341065 0.313159,0.89917 0,0.595313 -0.375171,0.927075 -0.375171,0.328662 -1.020093,0.328662 -0.387573,0 -0.747241,-0.158129 -0.356567,-0.15813 -0.586011,-0.486792 -0.229443,-0.328663 -0.229443,-0.84336 h 0.914673 q 0,0.409278 0.16123,0.576709 0.164331,0.167432 0.486792,0.167432 0.26355,0 0.37207,-0.142627 0.108521,-0.145728 0.108521,-0.362769 z"
         style="font-style:normal;font-variant:normal;font-weight:bold;font-stretch:normal;font-size:6.35px;font-family:'Roboto Condensed';-inkscape-font-specification:'Roboto Condensed, Bold';text-align:center;text-anchor:middle;stroke-width:0.264583"
         id="path1747" />
      <path
         d="m 19.661129,64.784047 h 0.911572 q -0.031,0.768945 -0.434082,1.168921 -0.403076,0.399975 -1.128613,0.399975 -0.74414,0 -1.156518,-0.486792 -0.412378,-0.486792 -0.42168,-1.404565 v -0.809253 q 0,-0.945679 0.42478,-1.441772 0.427881,-0.499195 1.16582,-0.499195 0.73794,0 1.122413,0.415479 0.384472,0.412378 0.434082,1.181323 H 19.66733 q -0.0155,-0.483691 -0.151928,-0.660425 -0.136426,-0.179834 -0.492994,-0.179834 -0.350366,0 -0.511596,0.251148 -0.161231,0.251147 -0.167432,0.877466 v 0.821655 q 0,0.638721 0.139527,0.908471 0.139526,0.269751 0.527099,0.269751 0.337964,0 0.486792,-0.16123 0.148828,-0.16123 0.164331,-0.651123 z"
         style="font-style:normal;font-variant:normal;font-weight:bold;font-stretch:normal;font-size:6.35px;font-family:'Roboto Condensed';-inkscape-font-specification:'Roboto Condensed, Bold';text-align:center;text-anchor:middle;stroke-width:0.264583"
         id="path1749" />
      <path
         d="m 22.085787,61.776479 v 4.514453 h -0.911572 v -4.514453 z"
         style="font-style:normal;font-variant:normal;font-weight:bold;font-stretch:normal;font-size:6.35px;font-family:'Roboto Condensed';-inkscape-font-specification:'Roboto Condensed, Bold';text-align:center;text-anchor:middle;stroke-width:0.264583"
         id="path1751" />
      <path
         d="m 25.363107,65.534389 v 0.756543 h -2.511475 v -4.514453 h 0.914673 v 3.75791 z"
         style="font-style:normal;font-variant:normal;font-weight:bold;font-stretch:normal;font-size:6.35px;font-family:'Roboto Condensed';-inkscape-font-specification:'Roboto Condensed, Bold';text-align:center;text-anchor:middle;stroke-width:0.264583"
         id="path1753" />
      <path
         d="m 11.965475,71.470082 v 0.756543 H 9.4540002 v -4.514453 h 0.9146728 v 3.75791 z"
         style="font-style:normal;font-variant:normal;font-weight:bold;font-stretch:normal;font-size:6.35px;font-family:'Roboto Condensed';-inkscape-font-specification:'Roboto Condensed, Bold';text-align:center;text-anchor:middle;stroke-width:0.264583"
         id="path1755" />
      <path
         d="m 12.25693,72.226625 1.410766,-4.514453 h 0.834058 l 1.420068,4.514453 h -0.970483 l -0.241846,-0.923974 h -1.243335 l -0.241845,0.923974 z m 1.407666,-1.683618 h 0.84646 l -0.42478,-1.612305 z"
         style="font-style:normal;font-variant:normal;font-weight:bold;font-stretch:normal;font-size:6.35px;font-family:'Roboto Condensed';-inkscape-font-specification:'Roboto Condensed, Bold';text-align:center;text-anchor:middle;stroke-width:0.264583"
         id="path1757" />
      <path
         d="m 15.772994,68.471816 v -0.759644 h 3.128491 v 0.759644 h -1.119311 v 3.754809 h -0.911572 v -3.754809 z"
         style="font-style:normal;font-variant:normal;font-weight:bold;font-stretch:normal;font-size:6.35px;font-family:'Roboto Condensed';-inkscape-font-specification:'Roboto Condensed, Bold';text-align:center;text-anchor:middle;stroke-width:0.264583"
         id="path1759" />
      <path
         d="m 22.516769,70.372475 q 0,0.95498 -0.446484,1.435571 -0.446485,0.480591 -1.175122,0.480591 -0.725537,0 -1.178223,-0.480591 -0.452685,-0.480591 -0.452685,-1.435571 v -0.750342 q 0,-0.976684 0.449584,-1.472778 0.449585,-0.499195 1.175123,-0.499195 0.728637,0 1.178222,0.499195 0.449585,0.496094 0.449585,1.472778 z m -0.911572,-0.756543 q 0,-0.644922 -0.182935,-0.923975 -0.182934,-0.279052 -0.5333,-0.279052 -0.347266,0 -0.530201,0.275952 -0.179834,0.272851 -0.182934,0.90227 v 0.781348 q 0,0.613916 0.182934,0.886767 0.186035,0.269751 0.536402,0.269751 0.347265,0 0.527099,-0.26665 0.179834,-0.26665 0.182935,-0.868164 z"
         style="font-style:normal;font-variant:normal;font-weight:bold;font-stretch:normal;font-size:6.35px;font-family:'Roboto Condensed';-inkscape-font-specification:'Roboto Condensed, Bold';text-align:center;text-anchor:middle;stroke-width:0.264583"
         id="path1761" />
      <path
         d="m 25.22048,72.226625 -0.679028,-1.649511 h -0.452686 v 1.649511 h -0.914673 v -4.514453 h 1.454175 q 0.675928,0 1.054199,0.350366 0.378272,0.347266 0.378272,1.013892 0,0.489893 -0.173633,0.790649 -0.173633,0.300757 -0.480591,0.465088 l 0.79375,1.85105 v 0.04341 z m -1.131714,-3.754809 v 1.345654 h 0.514697 q 0.272852,0 0.409278,-0.179834 0.136425,-0.182935 0.136425,-0.486792 0,-0.666626 -0.502295,-0.679028 z"
         style="font-style:normal;font-variant:normal;font-weight:bold;font-stretch:normal;font-size:6.35px;font-family:'Roboto Condensed';-inkscape-font-specification:'Roboto Condensed, Bold';text-align:center;text-anchor:middle;stroke-width:0.264583"
         id="path1763" />
    </g>
    <path
       id="path1679"
       style="color:#000000;font-style:normal;font-variant:normal;font-weight:normal;font-stretch:normal;font-size:medium;line-height:normal;font-family:sans-serif;font-variant-ligatures:normal;font-variant-position:normal;font-variant-caps:normal;font-variant-numeric:normal;font-variant-alternates:normal;font-variant-east-asian:normal;font-feature-settings:normal;font-variation-settings:normal;text-indent:0;text-align:start;text-decoration:none;text-decoration-line:none;text-decoration-style:solid;text-decoration-color:#000000;letter-spacing:normal;word-spacing:normal;text-transform:none;writing-mode:lr-tb;direction:ltr;text-orientation:mixed;dominant-baseline:auto;baseline-shift:baseline;text-anchor:start;white-space:normal;shape-padding:0;shape-margin:0;inline-size:0;clip-rule:nonzero;display:inline;overflow:visible;visibility:visible;opacity:1;isolation:auto;mix-blend-mode:normal;color-interpolation:sRGB;color-interpolation-filters:linearRGB;solid-color:#000000;solid-opacity:1;vector-effect:none;fill:#000000;fill-opacity:1;fill-rule:nonzero;stroke:none;stroke-width:2.83465;stroke-linecap:round;stroke-linejoin:round;stroke-miterlimit:4;stroke-dasharray:none;stroke-dashoffset:0;stroke-opacity:1;color-rendering:auto;image-rendering:auto;shape-rendering:auto;text-rendering:auto;enable-background:accumulate;stop-color:#000000;stop-opacity:1"
       d="M 300.84961 119.52734 A 1.4173248 1.4173248 0 0 0 299.43164 120.94531 L 299.43164 177.63867 A 1.4173248 1.4173248 0 0 0 299.43359 177.68359 A 1.4173228 1.4173228 0 0 0 299.43359 177.69922 A 1.4173248 1.4173248 0 0 0 299.45508 177.89062 A 1.4173228 1.4173228 0 0 0 299.45508 177.89258 A 1.4173228 1.4173228 0 0 0 299.45508 177.89453 A 1.4173248 1.4173248 0 0 0 299.47266 177.97656 A 1.4173228 1.4173228 0 0 0 299.48047 178.00195 A 1.4173248 1.4173248 0 0 0 299.91016 178.70117 L 372.00391 253.80469 L 372.00391 291.02344 A 1.4173248 1.4173248 0 0 0 373.41992 292.44141 A 1.4173248 1.4173248 0 0 0 374.83789 291.02344 L 374.83789 253.27344 A 1.4173228 1.4173228 0 0 0 374.83594 253.18555 A 1.4173248 1.4173248 0 0 0 374.83594 253.17188 A 1.4173228 1.4173228 0 0 0 374.83594 253.16406 A 1.4173248 1.4173248 0 0 0 374.82812 253.07227 A 1.4173248 1.4173248 0 0 0 374.81445 252.97461 A 1.4173248 1.4173248 0 0 0 374.79492 252.88477 A 1.4173248 1.4173248 0 0 0 374.79297 252.87695 A 1.4173228 1.4173228 0 0 0 374.79102 252.86914 A 1.4173248 1.4173248 0 0 0 374.76367 252.78125 A 1.4173248 1.4173248 0 0 0 374.6875 252.5957 A 1.4173248 1.4173248 0 0 0 374.63867 252.50781 A 1.4173248 1.4173248 0 0 0 374.52539 252.34375 A 1.4173248 1.4173248 0 0 0 374.40234 252.20703 L 302.26562 177.0625 L 302.26562 120.94531 A 1.4173248 1.4173248 0 0 0 300.84961 119.52734 z "
       transform="scale(0.26458333)" />
    <path
       id="path1666"
       style="color:#000000;font-style:normal;font-variant:normal;font-weight:normal;font-stretch:normal;font-size:medium;line-height:normal;font-family:sans-serif;font-variant-ligatures:normal;font-variant-position:normal;font-variant-caps:normal;font-variant-numeric:normal;font-variant-alternates:normal;font-variant-east-asian:normal;font-feature-settings:normal;font-variation-settings:normal;text-indent:0;text-align:start;text-decoration:none;text-decoration-line:none;text-decoration-style:solid;text-decoration-color:#000000;letter-spacing:normal;word-spacing:normal;text-transform:none;writing-mode:lr-tb;direction:ltr;text-orientation:mixed;dominant-baseline:auto;baseline-shift:baseline;text-anchor:start;white-space:normal;shape-padding:0;shape-margin:0;inline-size:0;clip-rule:nonzero;display:inline;overflow:visible;visibility:visible;opacity:1;isolation:auto;mix-blend-mode:normal;color-interpolation:sRGB;color-interpolation-filters:linearRGB;solid-color:#000000;solid-opacity:1;vector-effect:none;fill:#000000;fill-opacity:1;fill-rule:nonzero;stroke:none;stroke-width:2.83465;stroke-linecap:round;stroke-linejoin:round;stroke-miterlimit:4;stroke-dasharray:none;stroke-dashoffset:0;stroke-opacity:1;color-rendering:auto;image-rendering:auto;shape-rendering:auto;text-rendering:auto;enable-background:accumulate;stop-color:#000000;stop-opacity:1"
       d="M 168.26367 119.52734 A 1.4173248 1.4173248 0 0 0 166.8457 120.94531 L 166.8457 177.56836 A 1.4173228 1.4173228 0 0 0 167.14844 178.51562 L 226.86719 253.72656 L 226.86719 291.02344 A 1.4173248 1.4173248 0 0 0 228.28516 292.44141 A 1.4173248 1.4173248 0 0 0 229.70312 291.02344 L 229.70312 253.22852 A 1.4173248 1.4173248 0 0 0 229.33984 252.2832 L 169.67969 177.15039 L 169.67969 120.94531 A 1.4173248 1.4173248 0 0 0 168.26367 119.52734 z "
       transform="scale(0.26458333)" />
    <g
       aria-label="FILTER"
       id="text1408-9"
       style="font-style:normal;font-weight:normal;font-size:6.35px;line-height:1.25;font-family:sans-serif;letter-spacing:0px;word-spacing:0px;fill:#000000;fill-opacity:1;stroke:none;stroke-width:0.264583">
      <path
         d="m 52.029974,29.257454 v -4.514453 h 2.499073 v 0.759643 h -1.5844 v 1.156519 h 1.413867 v 0.756543 h -1.413867 v 1.841748 z"
         style="font-style:normal;font-variant:normal;font-weight:bold;font-stretch:normal;font-size:6.35px;font-family:'Roboto Condensed';-inkscape-font-specification:'Roboto Condensed, Bold';stroke-width:0.264583"
         id="path1715" />
      <path
         d="m 56.004926,24.743001 v 4.514453 h -0.911573 v -4.514453 z"
         style="font-style:normal;font-variant:normal;font-weight:bold;font-stretch:normal;font-size:6.35px;font-family:'Roboto Condensed';-inkscape-font-specification:'Roboto Condensed, Bold';stroke-width:0.264583"
         id="path1717" />
      <path
         d="m 59.282245,28.500911 v 0.756543 H 56.77077 v -4.514453 h 0.914673 v 3.75791 z"
         style="font-style:normal;font-variant:normal;font-weight:bold;font-stretch:normal;font-size:6.35px;font-family:'Roboto Condensed';-inkscape-font-specification:'Roboto Condensed, Bold';stroke-width:0.264583"
         id="path1719" />
      <path
         d="m 58.972186,25.502644 v -0.759643 h 3.128492 v 0.759643 h -1.119312 v 3.75481 h -0.911572 v -3.75481 z"
         style="font-style:normal;font-variant:normal;font-weight:bold;font-stretch:normal;font-size:6.35px;font-family:'Roboto Condensed';-inkscape-font-specification:'Roboto Condensed, Bold';stroke-width:0.264583"
         id="path1721" />
      <path
         d="m 62.624676,29.257454 v -4.514453 h 2.585889 v 0.759643 h -1.671216 v 1.066602 h 1.416968 v 0.734839 h -1.416968 v 1.196826 h 1.677417 v 0.756543 z"
         style="font-style:normal;font-variant:normal;font-weight:bold;font-stretch:normal;font-size:6.35px;font-family:'Roboto Condensed';-inkscape-font-specification:'Roboto Condensed, Bold';stroke-width:0.264583"
         id="path1723" />
      <path
         d="m 67.790252,29.257454 -0.679028,-1.649512 h -0.452686 v 1.649512 h -0.914672 v -4.514453 h 1.454174 q 0.675928,0 1.0542,0.350366 0.378271,0.347266 0.378271,1.013892 0,0.489892 -0.173633,0.790649 -0.173633,0.300757 -0.480591,0.465088 l 0.79375,1.85105 v 0.04341 z m -1.131714,-3.75481 v 1.345655 h 0.514698 q 0.272851,0 0.409277,-0.179834 0.136426,-0.182935 0.136426,-0.486792 0,-0.666626 -0.502295,-0.679029 z"
         style="font-style:normal;font-variant:normal;font-weight:bold;font-stretch:normal;font-size:6.35px;font-family:'Roboto Condensed';-inkscape-font-specification:'Roboto Condensed, Bold';stroke-width:0.264583"
         id="path1725" />
    </g>
    <g
       aria-label="ENVE
LOPE"
       id="text1408-1"
       style="font-style:normal;font-weight:normal;font-size:6.35px;line-height:0.9;font-family:sans-serif;letter-spacing:0px;word-spacing:0px;fill:#000000;fill-opacity:1;stroke:none;stroke-width:0.264583">
      <path
         d="M 113.8,41.258373 V 36.74392 h 2.58589 v 0.759644 h -1.67122 v 1.066601 h 1.41697 v 0.734839 h -1.41697 v 1.196826 h 1.67742 v 0.756543 z"
         style="font-style:normal;font-variant:normal;font-weight:bold;font-stretch:normal;font-size:6.35px;font-family:'Roboto Condensed';-inkscape-font-specification:'Roboto Condensed, Bold';text-align:center;text-anchor:middle;stroke-width:0.264583"
         id="path1728" />
      <path
         d="m 120.07558,36.74392 v 4.514453 h -0.91157 l -1.33325,-2.961059 v 2.961059 h -0.91467 V 36.74392 h 0.91467 l 1.33325,2.96416 v -2.96416 z"
         style="font-style:normal;font-variant:normal;font-weight:bold;font-stretch:normal;font-size:6.35px;font-family:'Roboto Condensed';-inkscape-font-specification:'Roboto Condensed, Bold';text-align:center;text-anchor:middle;stroke-width:0.264583"
         id="path1730" />
      <path
         d="m 124.05053,36.74392 -1.30224,4.514453 h -0.94568 l -1.29605,-4.514453 h 1.0108 l 0.75654,3.274219 0.75964,-3.274219 z"
         style="font-style:normal;font-variant:normal;font-weight:bold;font-stretch:normal;font-size:6.35px;font-family:'Roboto Condensed';-inkscape-font-specification:'Roboto Condensed, Bold';text-align:center;text-anchor:middle;stroke-width:0.264583"
         id="path1732" />
      <path
         d="M 124.47531,41.258373 V 36.74392 h 2.58589 v 0.759644 h -1.67121 v 1.066601 h 1.41697 v 0.734839 h -1.41697 v 1.196826 h 1.67741 v 0.756543 z"
         style="font-style:normal;font-variant:normal;font-weight:bold;font-stretch:normal;font-size:6.35px;font-family:'Roboto Condensed';-inkscape-font-specification:'Roboto Condensed, Bold';text-align:center;text-anchor:middle;stroke-width:0.264583"
         id="path1734" />
      <path
         d="m 116.50681,46.437524 v 0.756543 h -2.51148 v -4.514453 h 0.91468 v 3.75791 z"
         style="font-style:normal;font-variant:normal;font-weight:bold;font-stretch:normal;font-size:6.35px;font-family:'Roboto Condensed';-inkscape-font-specification:'Roboto Condensed, Bold';text-align:center;text-anchor:middle;stroke-width:0.264583"
         id="path1736" />
      <path
         d="m 120.01357,45.339916 q 0,0.954981 -0.44648,1.435572 -0.44649,0.48059 -1.17513,0.48059 -0.72553,0 -1.17822,-0.48059 -0.45268,-0.480591 -0.45268,-1.435572 v -0.750341 q 0,-0.976685 0.44958,-1.472779 0.44959,-0.499194 1.17512,-0.499194 0.72864,0 1.17823,0.499194 0.44958,0.496094 0.44958,1.472779 z M 119.102,44.583373 q 0,-0.644921 -0.18294,-0.923974 -0.18293,-0.279053 -0.5333,-0.279053 -0.34726,0 -0.5302,0.275952 -0.17983,0.272852 -0.18293,0.902271 v 0.781347 q 0,0.613916 0.18293,0.886768 0.18604,0.269751 0.5364,0.269751 0.34727,0 0.5271,-0.26665 0.17984,-0.266651 0.18294,-0.868164 z"
         style="font-style:normal;font-variant:normal;font-weight:bold;font-stretch:normal;font-size:6.35px;font-family:'Roboto Condensed';-inkscape-font-specification:'Roboto Condensed, Bold';text-align:center;text-anchor:middle;stroke-width:0.264583"
         id="path1738" />
      <path
         d="m 121.58247,45.606567 v 1.5875 h -0.91468 v -4.514453 h 1.541 q 0.68213,0 1.0728,0.42478 0.39377,0.42168 0.39377,1.069702 0,0.654224 -0.39067,1.041797 -0.38757,0.387573 -1.0666,0.390674 z m 0,-2.16731 v 1.407666 h 0.62632 q 0.28525,0 0.41237,-0.186035 0.13023,-0.189136 0.13023,-0.480591 0,-0.291455 -0.13023,-0.514697 -0.12712,-0.226343 -0.41237,-0.226343 z"
         style="font-style:normal;font-variant:normal;font-weight:bold;font-stretch:normal;font-size:6.35px;font-family:'Roboto Condensed';-inkscape-font-specification:'Roboto Condensed, Bold';text-align:center;text-anchor:middle;stroke-width:0.264583"
         id="path1740" />
      <path
         d="m 124.27998,47.194067 v -4.514453 h 2.58589 v 0.759643 h -1.67122 v 1.066602 h 1.41697 v 0.734839 h -1.41697 v 1.196826 h 1.67742 v 0.756543 z"
         style="font-style:normal;font-variant:normal;font-weight:bold;font-stretch:normal;font-size:6.35px;font-family:'Roboto Condensed';-inkscape-font-specification:'Roboto Condensed, Bold';text-align:center;text-anchor:middle;stroke-width:0.264583"
         id="path1742" />
    </g>
    <g
       aria-label="OCTAVE"
       id="text1408-9-4"
       style="font-style:normal;font-weight:normal;font-size:4.93889px;line-height:1.25;font-family:sans-serif;letter-spacing:0px;word-spacing:0px;fill:#000000;fill-opacity:1;stroke:none;stroke-width:0.264583">
      <path
         d="m 24.620999,5.0097679 q 0,0.7427628 -0.347266,1.1165557 -0.347265,0.373793 -0.913984,0.373793 -0.564306,0 -0.916395,-0.373793 Q 22.091265,5.7525307 22.091265,5.0097679 V 4.4261686 q 0,-0.7596437 0.349677,-1.1454945 0.349677,-0.3882623 0.913984,-0.3882623 0.566719,0 0.916396,0.3882623 0.349677,0.3858508 0.349677,1.1454945 z M 23.911998,4.4213455 q 0,-0.501606 -0.142282,-0.7186471 -0.142283,-0.217041 -0.41479,-0.217041 -0.270095,0 -0.412378,0.2146295 -0.139871,0.2122179 -0.142282,0.7017661 v 0.6077149 q 0,0.4774904 0.142282,0.6897083 0.144694,0.2098064 0.417201,0.2098064 0.270096,0 0.409967,-0.2073948 0.139871,-0.2073948 0.142282,-0.6752389 z"
         style="font-style:normal;font-variant:normal;font-weight:bold;font-stretch:normal;font-size:4.93889px;font-family:'Roboto Condensed';-inkscape-font-specification:'Roboto Condensed, Bold';stroke-width:0.264583"
         id="path1702" />
      <path
         d="m 26.801056,5.2798635 h 0.709001 q -0.02412,0.5980687 -0.33762,0.9091609 -0.313504,0.3110922 -0.87781,0.3110922 -0.578776,0 -0.899515,-0.3786161 -0.320738,-0.3786161 -0.327973,-1.09244 V 4.3996414 q 0,-0.7355281 0.330385,-1.1213788 0.332796,-0.3882624 0.906749,-0.3882624 0.573953,0 0.872987,0.32315 0.299035,0.3207385 0.33762,0.9188072 H 26.805879 Q 26.793821,3.7557529 26.687712,3.6182936 26.581603,3.4784227 26.304273,3.4784227 q -0.272507,0 -0.397909,0.1953369 -0.125401,0.195337 -0.130224,0.6824736 v 0.6390653 q 0,0.4967829 0.10852,0.7065893 0.108521,0.2098063 0.409967,0.2098063 0.262861,0 0.378616,-0.1254015 0.115755,-0.1254015 0.127813,-0.5064291 z"
         style="font-style:normal;font-variant:normal;font-weight:bold;font-stretch:normal;font-size:4.93889px;font-family:'Roboto Condensed';-inkscape-font-specification:'Roboto Condensed, Bold';stroke-width:0.264583"
         id="path1704" />
      <path
         d="m 27.719863,3.5314771 v -0.590834 h 2.433271 v 0.590834 H 29.282559 V 6.4518852 H 28.573558 V 3.5314771 Z"
         style="font-style:normal;font-variant:normal;font-weight:bold;font-stretch:normal;font-size:4.93889px;font-family:'Roboto Condensed';-inkscape-font-specification:'Roboto Condensed, Bold';stroke-width:0.264583"
         id="path1706" />
      <path
         d="m 30.042203,6.4518852 1.097263,-3.5112421 h 0.648711 l 1.104498,3.5112421 h -0.75482 L 31.949752,5.7332381 h -0.967038 l -0.188102,0.7186471 z m 1.094851,-1.3094811 h 0.658358 l -0.330385,-1.254015 z"
         style="font-style:normal;font-variant:normal;font-weight:bold;font-stretch:normal;font-size:4.93889px;font-family:'Roboto Condensed';-inkscape-font-specification:'Roboto Condensed, Bold';stroke-width:0.264583"
         id="path1708" />
      <path
         d="M 35.56228,2.9406431 34.549422,6.4518852 H 33.813894 L 32.805859,2.9406431 h 0.786171 l 0.588422,2.5466152 0.590834,-2.5466152 z"
         style="font-style:normal;font-variant:normal;font-weight:bold;font-stretch:normal;font-size:4.93889px;font-family:'Roboto Condensed';-inkscape-font-specification:'Roboto Condensed, Bold';stroke-width:0.264583"
         id="path1710" />
      <path
         d="M 35.892665,6.4518852 V 2.9406431 h 2.011247 v 0.590834 h -1.299834 v 0.8295792 h 1.102086 v 0.5715415 h -1.102086 v 0.930865 h 1.304657 v 0.5884224 z"
         style="font-style:normal;font-variant:normal;font-weight:bold;font-stretch:normal;font-size:4.93889px;font-family:'Roboto Condensed';-inkscape-font-specification:'Roboto Condensed, Bold';stroke-width:0.264583"
         id="path1712" />
    </g>
    <path
       d="M 78.333333,1.9708333 H 71.66667 A 0.41666666,0.41666666 0 0 0 71.25,2.3875033 v 4.16666 a 0.41666666,0.41666666 0 0 0 0.41667,0.41667 h 6.666663 A 0.41666666,0.41666666 0 0 0 78.75,6.5541633 v -4.16666 a 0.41666666,0.41666666 0 0 0 -0.416667,-0.41667 z M 73.125,6.1375033 h -1.04167 v -2.08334 h 0.83334 v 1.04167 a 0.20833333,0.20833333 0 0 0 0.20833,0.20833 z m 1.666667,0 H 73.54167 v -0.83334 A 0.20833333,0.20833333 0 0 0 73.75,5.0958333 v -1.04167 h 0.833333 v 1.04167 a 0.20833333,0.20833333 0 0 0 0.208334,0.20833 z m 1.666666,0 h -1.25 v -0.83334 a 0.20833333,0.20833333 0 0 0 0.208334,-0.20833 v -1.04167 H 76.25 v 1.04167 a 0.20833333,0.20833333 0 0 0 0.208333,0.20833 z m 1.458334,0 H 76.875 v -0.83334 a 0.20833333,0.20833333 0 0 0 0.208333,-0.20833 v -1.04167 h 0.833334 z"
       id="path1518"
       style="stroke-width:0.0130208" />
    <path
       d="m 46.874364,0.907795 c 0.03955,0 0.07783,0.0217 0.09569,0.0574 l 0.682572,1.13677 c 0.01021,0.0179 0.01786,0.0357 0.01786,0.0574 0,0.0179 -0.0038,0.0396 -0.01403,0.0574 -0.02169,0.0357 -0.05741,0.0574 -0.09952,0.0574 h -0.454197 v 3.04542 c 0.505231,-0.32279 1.363868,-0.51671 1.363868,-0.88798 v -0.34065 h -0.341924 c -0.06379,0 -0.113549,-0.0498 -0.113549,-0.11355 v -1.13677 c 0,-0.0638 0.04976,-0.11355 0.113549,-0.11355 h 1.136769 c 0.06379,0 0.11355,0.0498 0.11355,0.11355 v 1.13677 c 0,0.0638 -0.04976,0.11355 -0.11355,0.11355 h -0.340648 v 0.34065 c 0,0.96198 -1.818065,1.0347 -1.818065,1.59096 v 1.27967 c 0.390405,0.10334 0.682572,0.45802 0.682572,0.88032 -0.0013,0.50141 -0.409544,0.90968 -0.910947,0.90968 -0.501403,0 -0.909671,-0.40827 -0.909671,-0.90968 0,-0.4223 0.290891,-0.77826 0.682572,-0.88032 0,-0.49885 0.121205,-0.56009 -0.770604,-0.95178 -1.13677,-0.51161 -1.047461,-0.74126 -1.047461,-1.38938 -0.26665,-0.0957 -0.454198,-0.34448 -0.454198,-0.64302 0,-0.37637 0.304925,-0.68257 0.682572,-0.68257 0.377647,0 0.682572,0.30492 0.682572,0.68257 0,0.29854 -0.188823,0.54733 -0.454197,0.64302 v 0.3802 c 0,0.37127 0.859913,0.56519 1.363868,0.88798 V 2.272885 H 46.19562 c -0.0421,0 -0.07783,-0.0217 -0.09952,-0.0574 -0.02169,-0.0357 -0.01786,-0.0817 0.0038,-0.11355 l 0.682572,-1.13677 c 0.01403,-0.0357 0.05231,-0.0574 0.09186,-0.0574 z"
       id="path1540"
       style="stroke-width:0.0127583" />
    <path
       d="m 15.416666,2.0833335 a 0.41666667,0.41666667 0 0 0 -0.833333,0 v 1.25 h 0.833333 z m 0.625,1.666667 H 11.458333 A 0.20833333,0.20833333 0 0 0 11.25,3.9583335 v 0.416667 a 0.20833333,0.20833333 0 0 0 0.208333,0.208333 h 0.208334 v 0.416667 a 2.0842447,2.0842447 0 0 0 1.666666,2.041666 v 1.291667 h 0.833334 v -1.291667 a 2.0842447,2.0842447 0 0 0 1.666666,-2.041666 v -0.416667 h 0.208333 A 0.20833333,0.20833333 0 0 0 16.25,4.3750005 v -0.416667 a 0.20833333,0.20833333 0 0 0 -0.208334,-0.208333 z m -3.124999,-1.666667 a 0.416667,0.416667 0 0 0 -0.833334,0 v 1.25 h 0.833334 z"
       id="path1551"
       style="stroke-width:0.0130208" />
    <g
       id="g1766"
       style="opacity:1">
      <path
         id="path1768"
         style="color:#000000;font-style:normal;font-variant:normal;font-weight:normal;font-stretch:normal;font-size:medium;line-height:normal;font-family:sans-serif;font-variant-ligatures:normal;font-variant-position:normal;font-variant-caps:normal;font-variant-numeric:normal;font-variant-alternates:normal;font-variant-east-asian:normal;font-feature-settings:normal;font-variation-settings:normal;text-indent:0;text-align:start;text-decoration:none;text-decoration-line:none;text-decoration-style:solid;text-decoration-color:#000000;letter-spacing:normal;word-spacing:normal;text-transform:none;writing-mode:lr-tb;direction:ltr;text-orientation:mixed;dominant-baseline:auto;baseline-shift:baseline;text-anchor:start;white-space:normal;shape-padding:0;shape-margin:0;inline-size:0;clip-rule:nonzero;display:inline;overflow:visible;visibility:visible;isolation:auto;mix-blend-mode:normal;color-interpolation:sRGB;color-interpolation-filters:linearRGB;solid-color:#000000;solid-opacity:1;vector-effect:none;fill:#000000;fill-opacity:1;fill-rule:nonzero;stroke:none;stroke-width:0.0111604;stroke-linecap:butt;stroke-linejoin:miter;stroke-miterlimit:4;stroke-dasharray:none;stroke-dashoffset:0;stroke-opacity:1;color-rendering:auto;image-rendering:auto;shape-rendering:auto;text-rendering:auto;enable-background:accumulate;stop-color:#000000;stop-opacity:1"
         d="M 98.499995,2.49998 C 97.400471,2.4851862 96.336667,3.1747592 95.895213,4.1807329 95.675498,4.6421168 95.626629,5.1581708 95.643,5.6626192 c -0.0045,0.1992331 -0.02151,0.4520762 0.197412,0.5496608 0.172234,0.034913 0.17833,0.172826 0.192906,0.3247292 0.12504,0.5871571 0.714866,1.0087735 1.30839,0.9630108 0.171652,0.011717 0.401666,-0.00146 0.438602,-0.2138754 0.0126,-0.6722128 0.0019,-1.3455972 0.0054,-2.0182646 0.0045,-0.2381641 -0.248799,-0.2890609 -0.435871,-0.26786 -0.364505,-0.021137 -0.738436,0.1084681 -0.99263,0.3753 -0.02612,-0.9765842 0.705376,-1.9011254 1.659424,-2.1060816 0.912188,-0.2273651 1.93184,0.2354633 2.367076,1.067311 0.17298,0.3167139 0.26252,0.6779947 0.259,1.0387706 -0.27385,-0.2950571 -0.685421,-0.4022883 -1.076118,-0.3753 -0.20352,-0.038093 -0.392085,0.1360121 -0.352383,0.3442348 0.0036,0.6472082 -0.0072,1.2951365 0.0054,1.9418898 0.03793,0.2160468 0.27212,0.2245106 0.445705,0.2138754 0.623515,0.047656 1.234725,-0.4282018 1.318935,-1.0529036 -0.045,-0.1894016 0.14888,-0.1972286 0.25714,-0.2912456 0.17645,-0.1699683 0.0978,-0.4275786 0.11553,-0.6449048 0.0441,-0.8805269 -0.33229,-1.7722596 -1.01282,-2.3369087 C 99.834671,2.7402086 99.169179,2.497145 98.499995,2.49998 Z" />
      <path
         id="path1770"
         style="color:#000000;font-style:normal;font-variant:normal;font-weight:normal;font-stretch:normal;font-size:medium;line-height:normal;font-family:sans-serif;font-variant-ligatures:normal;font-variant-position:normal;font-variant-caps:normal;font-variant-numeric:normal;font-variant-alternates:normal;font-variant-east-asian:normal;font-feature-settings:normal;font-variation-settings:normal;text-indent:0;text-align:start;text-decoration:none;text-decoration-line:none;text-decoration-style:solid;text-decoration-color:#000000;letter-spacing:normal;word-spacing:normal;text-transform:none;writing-mode:lr-tb;direction:ltr;text-orientation:mixed;dominant-baseline:auto;baseline-shift:baseline;text-anchor:start;white-space:normal;shape-padding:0;shape-margin:0;inline-size:0;clip-rule:nonzero;display:inline;overflow:visible;visibility:visible;isolation:auto;mix-blend-mode:normal;color-interpolation:sRGB;color-interpolation-filters:linearRGB;solid-color:#000000;solid-opacity:1;vector-effect:none;fill-opacity:1;fill-rule:nonzero;stroke:none;stroke-width:0.0111604;stroke-linecap:butt;stroke-linejoin:miter;stroke-miterlimit:4;stroke-dasharray:none;stroke-dashoffset:0;stroke-opacity:1;color-rendering:auto;image-rendering:auto;shape-rendering:auto;text-rendering:auto;enable-background:accumulate;stop-color:#000000;stop-opacity:1"
         d="m 98.5,2.484375 c -1.105678,-0.014837 -2.175364,0.6786469 -2.61938,1.6901792 -0.22066,0.4633968 -0.270134,0.981681 -0.253667,1.4883669 -0.006,0.2054239 -0.01763,0.4640142 0.207031,0.5636414 0.155341,0.033874 0.180179,0.1488449 0.184215,0.2934592 0.117005,0.6019224 0.716201,1.0429973 1.323451,0.9956033 0.178887,0.013211 0.41574,-0.00649 0.453384,-0.2260769 0.01329,-0.6734193 0.002,-1.3480717 0.0057,-2.02197 0.0053,-0.2465578 -0.255658,-0.3060662 -0.451228,-0.2832031 -0.358237,-0.021774 -0.720594,0.1120397 -0.974553,0.3671875 -0.0144,-0.9607345 0.70748,-1.8648416 1.646212,-2.0666971 0.903534,-0.2250444 1.913204,0.2329287 2.345118,1.0563688 0.16872,0.3082101 0.2582,0.6590072 0.25867,1.0103283 -0.27003,-0.2783072 -0.663205,-0.3943733 -1.043025,-0.3671875 -0.205921,-0.03692 -0.421587,0.1211743 -0.382756,0.3443029 0.0038,0.6535308 -0.0076,1.3078187 0.0057,1.9608702 0.03864,0.2234144 0.279863,0.2382176 0.460756,0.2260769 0.626698,0.047758 1.237998,-0.4302844 1.327708,-1.0559617 -0.0431,-0.1895392 0.15019,-0.197251 0.25825,-0.2920721 0.18463,-0.1769556 0.10317,-0.4454589 0.12137,-0.6721621 0.0455,-0.9383683 -0.39439,-1.8839807 -1.15359,-2.4405437 C 99.727715,2.6850738 99.115211,2.48233 98.5,2.484375 Z m 0,0.03125 c 1.093702,-0.014695 2.15178,0.6713203 2.59093,1.6719123 0.21883,0.4593465 0.26716,0.9731693 0.25087,1.4753838 0.004,0.1930874 0.0238,0.4394938 -0.18946,0.5343445 -0.14063,0.041891 -0.21014,0.123317 -0.18955,0.2781073 -0.0974,0.6063396 -0.69678,1.0585239 -1.30444,1.0090021 -0.163959,0.010068 -0.386743,0.00366 -0.422768,-0.2011344 -0.01185,-0.6713784 -0.0018,-1.3438575 -0.0051,-2.0156625 -0.0038,-0.2296281 0.241726,-0.2712668 0.419978,-0.2519531 0.373533,-0.022787 0.754673,0.1188059 1.007753,0.3984375 0.0404,-0.9592042 -0.6415,-1.8841747 -1.567983,-2.1328466 -0.907049,-0.274273 -1.95716,0.1409682 -2.435562,0.957852 -0.214969,0.3507515 -0.322744,0.7641248 -0.312858,1.1749946 0.268588,-0.3037224 0.681252,-0.4270471 1.076228,-0.3984375 0.189155,-0.035361 0.389535,0.1063005 0.351506,0.3130529 -0.0034,0.6514377 0.0068,1.3035519 -0.0051,1.9545627 -0.0371,0.208476 -0.264172,0.2100271 -0.43014,0.2011344 C 96.707383,7.5343257 96.0963,7.0446881 96.027737,6.4154731 96.069563,6.2556868 95.904811,6.2403572 95.806326,6.1728792 95.591867,6.0237435 95.674923,5.7463666 95.658203,5.525979 95.616283,4.7025385 95.934534,3.8654891 96.539012,3.2999108 97.060406,2.7988861 97.776759,2.5120403 98.5,2.515625 Z" />
    </g>
    <path
       d="m 106.82595,4.6875 a 0.23437499,0.23437499 0 1 0 -0.23438,-0.23437 0.23437499,0.23437499 0 0 0 0.23438,0.23437 z m 2.65625,0 a 0.23437499,0.23437499 0 1 0 -0.23438,-0.23437 0.23437499,0.23437499 0 0 0 0.23438,0.23437 z m 0.70312,-1.40625 h -0.60058 C 109.34304,3.01475 108.79382,2.5 108.15407,2.5 c -0.63974,0 -1.18896,0.51475 -1.43066,0.78125 h -0.60059 A 0.46874998,0.46874998 0 0 0 105.65407,3.75 V 7.03125 A 0.46874998,0.46874998 0 0 0 106.12282,7.5 h 4.0625 a 0.46874998,0.46874998 0 0 0 0.46875,-0.46875 V 3.75 a 0.46874998,0.46874998 0 0 0 -0.46875,-0.46875 z m -2.03125,-0.3125 c 0.2627,0 0.52735,0.14443 0.74463,0.3125 h -1.48926 c 0.21729,-0.16826 0.48194,-0.3125 0.74463,-0.3125 z m -1.5625,3.4375 A 0.15624999,0.15624999 0 1 1 106.74782,6.25 0.15624999,0.15624999 0 0 1 106.59157,6.40625 Z m 0.3125,0.46875 a 0.15624999,0.15624999 0 1 1 0.15625,-0.15625 0.15624999,0.15624999 0 0 1 -0.15625,0.15625 z m -0.15625,-1.09375 a 0.15624999,0.15624999 0 1 1 0.15625,0.15625 0.15624999,0.15624999 0 0 1 -0.15625,-0.15625 z m 0.46875,0.625 A 0.15624999,0.15624999 0 1 1 107.37282,6.25 0.15624999,0.15624999 0 0 1 107.21657,6.40625 Z m 0.3125,0.46875 a 0.15624999,0.15624999 0 1 1 0.15625,-0.15625 0.15624999,0.15624999 0 0 1 -0.15625,0.15625 z m -0.15625,-1.09375 a 0.15624999,0.15624999 0 1 1 0.15625,0.15625 0.15624999,0.15624999 0 0 1 -0.15625,-0.15625 z m 0.46875,0.625 A 0.15624999,0.15624999 0 1 1 107.99782,6.25 0.15624999,0.15624999 0 0 1 107.84157,6.40625 Z m 0.3125,0.46875 a 0.15624999,0.15624999 0 1 1 0.15625,-0.15625 0.15624999,0.15624999 0 0 1 -0.15625,0.15625 z m -0.15625,-1.09375 a 0.15624999,0.15624999 0 1 1 0.15625,0.15625 0.15624999,0.15624999 0 0 1 -0.15625,-0.15625 z m 0.46875,0.625 A 0.15624999,0.15624999 0 1 1 108.62282,6.25 0.15624999,0.15624999 0 0 1 108.46657,6.40625 Z m 0.3125,0.46875 a 0.15624999,0.15624999 0 1 1 0.15625,-0.15625 0.15624999,0.15624999 0 0 1 -0.15625,0.15625 z m -0.15625,-1.09375 a 0.15624999,0.15624999 0 1 1 0.15625,0.15625 0.15624999,0.15624999 0 0 1 -0.15625,-0.15625 z m 0.46875,0.625 A 0.15624999,0.15624999 0 1 1 109.24782,6.25 0.15624999,0.15624999 0 0 1 109.09157,6.40625 Z m 0.3125,0.46875 a 0.15624999,0.15624999 0 1 1 0.15625,-0.15625 0.15624999,0.15624999 0 0 1 -0.15625,0.15625 z m -0.15625,-1.09375 a 0.15624999,0.15624999 0 1 1 0.15625,0.15625 0.15624999,0.15624999 0 0 1 -0.15625,-0.15625 z m 0.46875,0.625 A 0.15624999,0.15624999 0 1 1 109.87282,6.25 0.15624999,0.15624999 0 0 1 109.71657,6.40625 Z M 110.02907,5 h -3.75 V 3.90625 h 3.75 z M 107.6072,4.6875 a 0.23437499,0.23437499 0 1 0 -0.23438,-0.23437 0.23437499,0.23437499 0 0 0 0.23438,0.23437 z m 1.09375,0 a 0.23437499,0.23437499 0 1 0 -0.23438,-0.23437 0.23437499,0.23437499 0 0 0 0.23438,0.23437 z"
       id="path1573"
       style="stroke-width:0.00976561" />
  </g>
</svg>
